<?xml version="1.0" encoding="utf-8"?>
<!-- Generator: Adobe Illustrator 22.1.0, SVG Export Plug-In . SVG Version: 6.00 Build 0)  -->
<svg version="1.1" baseProfile="tiny" id="_x31__x26_1_IONOS"
	 xmlns="http://www.w3.org/2000/svg" xmlns:xlink="http://www.w3.org/1999/xlink" x="0px" y="0px" viewBox="0 0 422.1 113.4"
	 xml:space="preserve">
<g>
	<path fill="none" d="M200,80.1c1.4-1.4,2.2-3.2,2.2-5.2V38.1c0-1.9-0.8-3.8-2.2-5.2c-1.4-1.4-3.3-2.2-5.2-2.2c-2,0-3.8,0.8-5.2,2.2
		c-1.4,1.4-2.2,3.2-2.2,5.2v36.9c0,2,0.8,3.9,2.1,5.2c1.4,1.4,3.2,2.1,5.2,2.1C196.7,82.3,198.6,81.5,200,80.1z"/>
	<path fill="none" d="M327.9,74.9V38.1c0-4-3.4-7.4-7.4-7.4c-4.1,0-7.4,3.3-7.4,7.4v36.9c0,4.1,3.2,7.4,7.4,7.4
		C324.6,82.3,327.9,79,327.9,74.9z"/>
	<path fill="#164194" d="M371.8,43.2c-1.5-1.6-2.2-3.6-2-5.7c0.2-2.1,1.2-4.1,2.8-5.3c1.7-1.3,3.9-1.8,6-1.3
		c2.1,0.4,3.9,1.7,4.9,3.5c0.9,1.7,2.9,2.9,4.9,2.9c1,0,1.9-0.3,2.7-0.7c1.3-0.8,2.3-2,2.7-3.5c0.4-1.5,0.2-3-0.6-4.3
		c-2.6-4.6-7.1-7.8-12.4-8.9c-4.2-0.9-8.8-0.2-12.6,1.9l-0.9,0.7c-3,1.4-5.4,4.8-5.6,5.1l-0.8,1.4c-1.4,2.4-2.2,5.1-2.4,7.8
		c-0.4,4,0.6,7.9,2.8,11.3l0.9,1.3c0.4,0.5,18.8,19.5,18.8,19.5c1.5,1.5,2.4,3.8,2.2,6.1c-0.2,2.3-1.3,4.3-3.2,5.7
		c-1.7,1.3-4.1,1.9-6.3,1.4c-1.4-0.3-2.7-0.9-3.7-1.8l-0.8-0.8l-0.6-0.8c-0.1-0.1-0.1-0.2-0.2-0.3c-1-1.8-2.9-2.9-4.9-2.9
		c-1,0-2,0.3-2.8,0.8c-2.6,1.6-3.5,4.8-2.1,7.6l0.1,0.1c2.8,4.7,7.4,8.1,12.8,9.1c1.2,0.3,2.5,0.4,3.7,0.4c4.1,0,8.3-1.4,11.6-3.9
		c4.3-3.2,7.1-8.3,7.6-13.8c0.4-5.5-1.6-10.9-5.4-14.8L371.8,43.2z"/>
	<path fill="#164194" d="M339.1,74.9V38.1c0-10.3-8.4-18.6-18.6-18.6c-10.3,0-18.6,8.4-18.6,18.6v36.9c0,10.3,8.4,18.6,18.6,18.6
		C330.8,93.5,339.1,85.2,339.1,74.9z M313.1,74.9V38.1c0-4.1,3.3-7.4,7.4-7.4c4,0,7.4,3.4,7.4,7.4v36.9c0,4.1-3.3,7.4-7.4,7.4
		C316.4,82.3,313.1,79.1,313.1,74.9z"/>
	<path fill="#164194" d="M247.6,22.5c-1-1.9-3-3.1-5.1-3.1c-0.4,0-0.8,0-1.1,0.1c-2.6,0.5-4.4,2.8-4.4,5.5v1.3l30.9,64.1
		c1,1.9,3,3.1,5,3.1c0.5,0,0.9-0.1,1.3-0.2c2.6-0.5,4.4-2.8,4.4-5.5v-1.2c0,0-30.1-62.4-30.9-64.1L247.6,22.5z"/>
	<path fill="#164194" d="M278.5,25.1c0-3.2-2.5-5.6-5.6-5.6c-3.2,0-5.6,2.5-5.6,5.6v30.5l11.2,23.3V25.1z"/>
	<path fill="#164194" d="M236.9,87.9c0,3.2,2.5,5.6,5.6,5.6c3.2,0,5.6-2.5,5.6-5.6V57.4l-11.2-23.3V87.9z"/>
	<path fill="#164194" d="M207.9,88.1c3.5-3.5,5.5-8.2,5.5-13.2V38.1c0-5-1.9-9.6-5.5-13.2c-3.5-3.5-8.2-5.5-13.2-5.5
		c-5,0-9.6,1.9-13.2,5.5c-3.5,3.5-5.5,8.2-5.5,13.2v36.9c0,5,1.9,9.6,5.5,13.2c3.5,3.5,8.2,5.5,13.2,5.5
		C199.7,93.5,204.4,91.6,207.9,88.1z M187.4,74.9V38.1c0-2,0.8-3.8,2.2-5.2c1.4-1.4,3.2-2.2,5.2-2.2c1.9,0,3.8,0.8,5.2,2.2
		c1.4,1.4,2.2,3.3,2.2,5.2v36.9c0,2-0.8,3.8-2.2,5.2c-1.4,1.4-3.2,2.2-5.2,2.2c-2,0-3.9-0.8-5.2-2.1
		C188.1,78.8,187.4,76.9,187.4,74.9z"/>
	<path fill="#164194" d="M152.5,24.4c0-0.2-0.1-0.3-0.1-0.4c-0.7-2.7-3.1-4.5-5.9-4.5c-3.4,0-6.1,2.7-6.1,6l0,0.1v61.7
		c0,3.5,2.7,6.2,6.1,6.2c3.5,0,6.2-2.7,6.2-6.2c0-0.7,0-61.7,0-61.7c0-0.3,0-0.6-0.1-1L152.5,24.4z"/>
	<path fill="#FFFFFF" d="M0,0v113.4h113.4V0H0z M111.6,111.6H1.9V1.9h109.7V111.6z"/>
	<path fill="#164194" d="M1.9,111.6h109.7V1.9H1.9V111.6z M78.4,30.7H97v51.6l-10.3,0V39h-8.3V30.7z M47.9,52.9
		c-4.7-6-5.6-8-5.6-11.8c0-6.4,5.4-11,13.1-11c7.1,0,12.2,4.8,12.2,11.3c0,4.8-2,8.3-8,13.3l8.9,12.1c0.7-0.7,1.4-4.8,1.3-8.1
		c0-0.4-0.1-1.6-0.2-2.8h8.3c0,1.1,0.1,2.7,0.1,3.1c0,6.5-1,10.6-4.2,14.6l6.6,8.7H70.3L68,79.2c-3.8,3-7.1,4.1-12.4,4.1
		C45.2,83.2,38,77.9,37.3,68.5C36.9,62.9,40.7,57,47.9,52.9z M12.4,30.7H31v51.6l-10.3,0V39h-8.3V30.7z"/>
	<path fill="#164194" d="M55.6,75.2c3.2,0,5.4-1.2,7.2-2.7l-9.8-13c-4.6,3-6.4,6-6.3,8.8C46.8,72.5,50.4,75.2,55.6,75.2z"/>
	<path fill="#164194" d="M59.6,41.3c0-2.3-1.6-3.8-4.2-3.8c-2.5,0-4.3,1.6-4.3,3.9c0,2.1,0.6,3.3,3.6,7.1
		C58.3,45.9,59.6,43.6,59.6,41.3z"/>
	<polygon fill="#FFFFFF" points="86.7,82.3 97,82.3 97,30.7 78.4,30.7 78.4,39 86.7,39 	"/>
	<path fill="#FFFFFF" d="M55.6,83.3c5.3,0,8.6-1.1,12.4-4.1l2.3,3.1h10.2l-6.6-8.7c3.1-4,4.2-8.1,4.2-14.6c0-0.4-0.1-2-0.1-3.1h-8.3
		c0.1,1.3,0.2,2.4,0.2,2.8c0.1,3.3-0.5,7.4-1.3,8.1l-8.9-12.1c6-5,8-8.6,8-13.3c0-6.5-5.1-11.3-12.2-11.3c-7.7,0-13.1,4.7-13.1,11
		c0,3.7,1,5.8,5.6,11.8c-7.2,4.2-11,10-10.6,15.6C38,77.9,45.2,83.2,55.6,83.3z M55.4,37.5c2.6,0,4.2,1.5,4.2,3.8
		c0,2.3-1.3,4.7-4.8,7.2c-3-3.8-3.6-5-3.6-7.1C51.1,39.1,52.9,37.5,55.4,37.5z M53,59.5l9.8,13c-1.9,1.5-4,2.7-7.2,2.7
		c-5.2,0-8.8-2.7-8.9-7C46.6,65.5,48.5,62.5,53,59.5z"/>
	<polygon fill="#FFFFFF" points="20.6,82.3 31,82.3 31,30.7 12.4,30.7 12.4,39 20.6,39 	"/>
</g>
</svg>
